<?xml version="1.0" encoding="utf-8"?>
<!-- Generator: Adobe Illustrator 16.0.3, SVG Export Plug-In . SVG Version: 6.00 Build 0)  -->
<!DOCTYPE svg PUBLIC "-//W3C//DTD SVG 1.1//EN" "http://www.w3.org/Graphics/SVG/1.1/DTD/svg11.dtd">
<svg version="1.1" id="Vrstva_1" xmlns="http://www.w3.org/2000/svg" xmlns:xlink="http://www.w3.org/1999/xlink" x="0px" y="0px"
	 width="283.46px" height="132.34px" viewBox="0 0 283.46 132.34" enable-background="new 0 0 283.46 132.34" xml:space="preserve">
<g>
	<polygon fill="#FFFFFF" points="43.07,101.836 40.317,101.836 40.317,105.686 38.188,108.377 40.317,108.377 40.317,117.287 
		43.07,117.287 43.07,108.377 45.895,108.377 45.895,105.623 43.07,105.623 	"/>
	<rect x="33.851" y="105.623" fill="#FFFFFF" width="2.751" height="11.664"/>
	<rect x="33.851" y="99.758" fill="#FFFFFF" width="2.751" height="3.572"/>
	<path fill="#FFFFFF" d="M29.12,102.893c0-0.012-0.031-0.926,0.575-1.555c0.393-0.406,0.959-0.615,1.693-0.615h0.098v-2.551
		l-0.086-0.01c-0.006,0-0.13-0.01-0.341-0.01c-1.097,0-4.688,0.408-4.688,5.709v1.818l-2.132,2.696h2.132v13.881h2.749v-13.881
		h2.824v-2.754H29.12V102.893z"/>
	<path fill="#FFFFFF" d="M53.514,105.48c-2.604,0-3.673,1.19-3.928,1.543l-2.071-1.646v11.908h2.747v-5.123
		c0-1.644,0.376-2.834,1.113-3.526c0.696-0.656,1.481-0.623,1.494-0.623c0.525,0,0.946,0.168,1.25,0.489
		c0.655,0.69,0.585,1.906,0.584,1.922v6.861h2.752v-7.728c0-1.291-0.372-2.311-1.104-3.012
		C55.195,105.432,53.577,105.48,53.514,105.48z"/>
	<rect x="157.938" y="105.623" fill="#FFFFFF" width="2.75" height="11.664"/>
	<rect x="157.938" y="99.758" fill="#FFFFFF" width="2.75" height="3.572"/>
	<path fill="#FFFFFF" d="M119.698,105.383c-3.347,0-6.066,2.729-6.066,6.066c0,3.346,2.719,6.068,6.066,6.068
		c3.342,0,6.063-2.724,6.063-6.068C125.76,108.111,123.04,105.383,119.698,105.383z M119.647,108.117
		c1.837,0,3.329,1.496,3.329,3.332c0,1.84-1.491,3.336-3.329,3.336c-1.843,0-3.338-1.496-3.338-3.336
		C116.309,109.613,117.804,108.117,119.647,108.117z"/>
	<rect x="128.573" y="98.102" fill="#FFFFFF" width="2.755" height="19.187"/>
	<path fill="#FFFFFF" d="M193.652,106.619c-1.15-1.117-2.777-1.061-2.834-1.064c-2.593,0-3.664,1.184-3.928,1.531
		c-0.119-0.162-0.23-0.332-0.385-0.467c-1.151-1.117-2.771-1.061-2.834-1.064c-2.603,0-3.67,1.191-3.935,1.539l-2.063-1.643v11.898
		h2.744v-5.119c0-1.644,0.379-2.83,1.111-3.527c0.694-0.654,1.482-0.617,1.5-0.617c0.518,0,0.941,0.16,1.248,0.492
		c0.648,0.697,0.583,1.896,0.583,1.918v6.855h2.755v-5.933c0.11-1.222,0.451-2.138,1.059-2.717c0.695-0.654,1.483-0.617,1.5-0.617
		c0.518,0,0.943,0.16,1.25,0.492c0.647,0.696,0.584,1.896,0.582,1.918v6.854h2.756v-7.723
		C194.762,108.334,194.384,107.328,193.652,106.619z"/>
	<path fill="#FFFFFF" d="M171.524,110.68c-0.003,1.637-0.384,2.82-1.114,3.516c-0.699,0.66-1.483,0.63-1.498,0.627
		c-0.518,0-0.94-0.168-1.248-0.491c-0.648-0.692-0.584-1.908-0.584-1.922v-6.854h-2.752v7.723c0,1.287,0.369,2.3,1.107,3.013
		c1.042,1.004,2.475,1.063,2.773,1.063h0.063c2.602,0,3.669-1.193,3.934-1.533l2.064,1.639v-11.904h-2.745V110.68L171.524,110.68z"
		/>
	<path fill="#FFFFFF" d="M152.001,107.205l-2.209-1.754v11.9h2.754v-6.738c0.474-2.354,3.086-2.52,3.213-2.527l0.09-0.004v-2.705
		l-0.102,0.004C155.642,105.383,153.182,105.529,152.001,107.205z"/>
	<path fill="#FFFFFF" d="M146.271,110.748v-5.373l-1.939,1.535c-1.082-0.992-2.512-1.605-4.089-1.605
		c-3.349,0-6.068,2.721-6.068,6.068s2.72,6.064,6.068,6.064c1.212,0,2.331-0.355,3.274-0.972v0.812h2.755v-5.271
		c0.023-0.207,0.037-0.418,0.037-0.633S146.294,110.951,146.271,110.748z M140.184,108.037c1.848,0,3.332,1.5,3.332,3.336
		c0,1.834-1.484,3.334-3.332,3.334c-1.838,0-3.324-1.5-3.324-3.334C136.859,109.537,138.346,108.037,140.184,108.037z"/>
	<path fill="#FFFFFF" d="M108.228,110.143c-1.459-0.354-1.915-0.832-2.042-1.166c-0.132-0.375,0.081-0.668,0.094-0.69
		c0.013-0.022,0.284-0.522,1.208-0.522c0.715,0,1.617,0.299,2.685,0.881l0.083,0.051l1.156-2.072l-0.091-0.051
		c-1.635-0.799-3.068-1.197-4.26-1.197c-3.371,0-3.723,3.236-3.727,3.271c-0.004,0.033-0.291,2.895,3.169,3.746
		c0.014,0.006,1.659,0.303,2.161,1.09c0.144,0.219,0.181,0.459,0.108,0.715c-0.01,0.039-0.245,0.832-1.345,0.832
		c-0.817,0-1.886-0.434-3.174-1.271l-0.075-0.051l-1.594,1.94l0.072,0.068c1.953,1.719,4.472,1.801,4.955,1.801h0.102
		c0.036-0.004,3.856-0.149,3.856-3.774C111.57,110.598,108.253,110.145,108.228,110.143z"/>
	<path fill="#FFFFFF" d="M79.518,110.15c-1.462-0.355-1.916-0.834-2.039-1.166c-0.136-0.379,0.075-0.67,0.093-0.693
		c0.012-0.023,0.278-0.521,1.205-0.521c0.716,0,1.621,0.299,2.684,0.883l0.088,0.045l1.156-2.067l-0.093-0.051
		c-1.635-0.802-3.066-1.201-4.258-1.201c-3.37,0-3.73,3.24-3.73,3.274c-0.003,0.035-0.292,2.89,3.17,3.748
		c0.016,0.004,1.66,0.3,2.163,1.084c0.141,0.224,0.178,0.466,0.106,0.722c-0.007,0.037-0.242,0.832-1.342,0.832
		c-0.817,0-1.885-0.433-3.175-1.269l-0.075-0.053l-1.592,1.938l0.07,0.072c1.955,1.713,4.47,1.797,4.954,1.797h0.098
		c0.04,0,3.863-0.145,3.863-3.77C82.861,110.602,79.545,110.154,79.518,110.15z"/>
	<path fill="#FFFFFF" d="M89.697,110.15c-1.46-0.355-1.918-0.834-2.042-1.166c-0.133-0.379,0.077-0.67,0.093-0.693
		c0.013-0.023,0.279-0.521,1.206-0.521c0.717,0,1.622,0.299,2.686,0.883l0.084,0.045l1.16-2.067l-0.094-0.051
		c-1.637-0.802-3.067-1.201-4.256-1.201c-3.371,0-3.732,3.24-3.736,3.274c-0.002,0.035-0.291,2.89,3.17,3.748
		c0.018,0.004,1.66,0.3,2.165,1.084c0.142,0.224,0.179,0.466,0.111,0.722c-0.01,0.037-0.244,0.832-1.349,0.832
		c-0.813,0-1.881-0.433-3.174-1.269l-0.07-0.053l-1.593,1.938l0.069,0.072c1.953,1.713,4.47,1.797,4.954,1.797h0.1
		c0.039,0,3.86-0.145,3.86-3.77C93.039,110.602,89.721,110.154,89.697,110.15z"/>
	<path fill="#FFFFFF" d="M66.496,105.383c-3.342,0-6.063,2.729-6.063,6.066c0,3.344,2.721,6.068,6.063,6.068
		c2.098,0,4.021-1.063,5.142-2.838l0.053-0.086l-2.228-1.31l-0.047,0.094c-0.783,1.396-2.577,1.412-2.593,1.412
		c-2.055,0-2.854-1.267-3.051-1.64l8.718-1.955l0.085-0.021l-0.052-0.444C72.157,107.684,69.569,105.383,66.496,105.383z
		 M63.347,110.789c0.077-2.273,2.379-2.711,2.473-2.727c0.251-0.039,0.492-0.051,0.719-0.051c1.975,0,2.544,1.256,2.668,1.618
		L63.347,110.789z"/>
</g>
<path fill="#00ACE5" d="M48.046,44.34c0,5.953-1.764,11.038-5.281,15.243c-3.812,4.452-8.634,6.672-14.467,6.672
	c-4.966,0-9.121-1.5-12.471-4.507v18.646l-4.569,6.137H0.256l4.57-6.137v-56.58l6.063,5.284c2.77-3.693,7.622-5.771,14.551-6.231
	c7.624,0,13.338,2.106,17.15,6.318C46.229,33.228,48.046,38.284,48.046,44.34 M37.22,44.34c0-3.399-1.027-6.231-3.076-8.482
	c-2.049-2.252-4.781-3.377-8.182-3.377c-3.178,0-5.718,1.171-7.625,3.503c-1.901,2.336-2.858,5.125-2.858,8.356
	c0,3.353,0.893,6.154,2.682,8.404c1.849,2.436,4.39,3.702,7.625,3.808c0.228-0.053,1.165-0.078,2.773-0.339
	c1.248-0.205,2.424-0.529,3.639-1.391C35.542,52.519,37.22,49.019,37.22,44.34 M92.045,65.473l-4.849-4.502
	c-3.121,3.115-7.507,4.674-13.168,4.674c-5.428,0-9.888-1.693-13.38-5.1c-3.493-3.408-5.242-7.802-5.242-13.167V23.906h11.002
	v22.431c0,2.599,0.606,4.764,1.821,6.498c1.327,1.959,3.259,2.939,5.799,2.939c4.736,0,7.103-3.141,7.103-9.437V23.906h11.003
	L92.045,65.473z M114.813,63.752H103.82V-0.003h10.735L114.813,63.752z M152.582,51.624c0,3.693-1.504,6.875-4.502,9.52
	c-3.016,2.651-6.934,3.872-11.789,3.638c-6.002-0.457-10.74-2.076-14.201-4.845l4.847-7.279c3.47,1.387,6.533,2.455,10.397,3.025
	c1.07,0.081,4-0.424,4.154-2.849c-0.019-2.325-1.988-3.578-4.588-4.938c-5.148-2.701-7.999-4.306-8.574-4.762
	c-3.064-2.308-4.593-5.057-4.593-8.231c0-3.406,1.356-6.266,4.067-8.575c2.715-2.309,5.81-3.46,9.267-3.46
	c3.121,0,5.563,0.948,7.94,2.034c1.902,0.872,3.529,1.893,5.138,3.507l-5.185,5.893c-2.541-1.388-11.49-4.827-10.653,0.081
	c0.172,1.026,1.578,2.225,4.762,3.551c4.269,1.794,7.181,3.293,8.74,4.506C150.987,44.863,152.582,47.927,152.582,51.624
	 M203.203,55.431c-1.98,2.778-4.348,5.079-7.108,6.93c-2.765,1.844-6.796,2.784-12.743,2.811
	c-8.383-0.095-14.232-2.235-18.041-6.625c-3.85-3.689-5.514-8.897-5.293-15.242c0.184-4.873,1.375-9.236,5.793-13.864
	c4.413-4.608,9.926-6.923,16.552-6.923c6.837-0.228,12.404,2.136,16.708,7.102c4.299,4.969,6.451,10.683,6.451,17.15h-35.743
	c1.325,6.006,5.851,9.239,13.573,9.697c5.072,0,8.82-1.726,11.247-5.189L203.203,55.431z M196.574,39.843
	c-2.304-5.083-6.582-7.854-12.82-8.315c-6.695,0.461-11.313,3.232-13.859,8.315H196.574z M220.155,132.322
	c1.445-0.193,2.593-1.305,2.832-2.734l15.753-93.525l19.618,48.886c0.503,1.256,1.724,2.072,3.078,2.072h17.711l4.573-6.627h-20.045
	l-23.168-57.739c-0.549-1.377-1.983-2.229-3.432-2.062c-1.474,0.161-2.666,1.28-2.91,2.746l-15.931,94.53l-16.319-35.54
	c-0.537-1.174-1.709-1.936-3.008-1.936H30.934l-4.571,6.627h170.424l19.922,43.393c0.541,1.191,1.729,1.928,3.01,1.928
	C219.862,132.342,220.013,132.336,220.155,132.322"/>
</svg>
